HIERARCHY
ROOT Hips
{
	OFFSET 0.00000 0.00000 0.00000
	CHANNELS 6 Xposition Yposition Zposition Zrotation Yrotation Xrotation 
	JOINT LHipJoint
	{
		OFFSET 0 0 0
		CHANNELS 3 Zrotation Yrotation Xrotation
		JOINT LeftUpLeg
		{
			OFFSET 1.81638 -1.86202 0.89635
			CHANNELS 3 Zrotation Yrotation Xrotation
			JOINT LeftLeg
			{
				OFFSET 2.63464 -7.23861 0.00000
				CHANNELS 3 Zrotation Yrotation Xrotation
				JOINT LeftFoot
				{
					OFFSET 2.45871 -6.75336 0.00000
					CHANNELS 3 Zrotation Yrotation Xrotation
					JOINT LeftToeBase
					{
						OFFSET 0.34235 -0.94059 2.20020
						CHANNELS 3 Zrotation Yrotation Xrotation
						End Site
						{
							OFFSET 0.00000 -0.00000 1.18611
						}
					}
				}
			}
		}
	}
	JOINT RHipJoint
	{
		OFFSET 0 0 0
		CHANNELS 3 Zrotation Yrotation Xrotation
		JOINT RightUpLeg
		{
			OFFSET -1.84405 -1.86203 0.89635
			CHANNELS 3 Zrotation Yrotation Xrotation
			JOINT RightLeg
			{
				OFFSET -2.71067 -7.44751 0.00000
				CHANNELS 3 Zrotation Yrotation Xrotation
				JOINT RightFoot
				{
					OFFSET -2.47159 -6.79060 0.00000
					CHANNELS 3 Zrotation Yrotation Xrotation
					JOINT RightToeBase
					{
						OFFSET -0.26223 -0.72048 2.36007
						CHANNELS 3 Zrotation Yrotation Xrotation
						End Site
						{
							OFFSET -0.00000 -0.00000 1.23343
						}
					}
				}
			}
		}
	}
	JOINT LowerBack
	{
		OFFSET 0 0 0
		CHANNELS 3 Zrotation Yrotation Xrotation
		JOINT Spine
		{
			OFFSET 0.02089 1.99248 -0.22512
			CHANNELS 3 Zrotation Yrotation Xrotation
			JOINT Spine1
			{
				OFFSET 0.01476 2.01356 -0.03079
				CHANNELS 3 Zrotation Yrotation Xrotation
				JOINT Neck
				{
					OFFSET 0 0 0
					CHANNELS 3 Zrotation Yrotation Xrotation
					JOINT Neck1
					{
						OFFSET 0.04846 1.65098 0.06663
						CHANNELS 3 Zrotation Yrotation Xrotation
						JOINT Head
						{
							OFFSET -0.06061 1.60634 -0.07565
							CHANNELS 3 Zrotation Yrotation Xrotation
							End Site
							{
								OFFSET -0.02954 1.73562 -0.03642
							}
						}
					}
				}
				JOINT LeftShoulder
				{
					OFFSET 0 0 0
					CHANNELS 3 Zrotation Yrotation Xrotation
					JOINT LeftArm
					{
						OFFSET 3.45234 1.47051 -0.06993
						CHANNELS 3 Zrotation Yrotation Xrotation
						JOINT LeftForeArm
						{
							OFFSET 5.49313 -0.00000 0.00000
							CHANNELS 3 Zrotation Yrotation Xrotation
							JOINT LeftHand
							{
								OFFSET 3.29037 -0.00000 0.00000
								CHANNELS 3 Zrotation Yrotation Xrotation
								JOINT LeftFingerBase
								{
									OFFSET 0 0 0
									CHANNELS 3 Zrotation Yrotation Xrotation
									JOINT LeftHandIndex1
									{
										OFFSET 0.72966 -0.00000 0.00000
										CHANNELS 3 Zrotation Yrotation Xrotation
										End Site
										{
											OFFSET 0.58827 -0.00000 0.00000
										}
									}
								}
								JOINT LThumb
								{
									OFFSET 0 0 0
									CHANNELS 3 Zrotation Yrotation Xrotation
									End Site
									{
										OFFSET 0.59725 -0.00000 0.59725
									}
								}
							}
						}
					}
				}
				JOINT RightShoulder
				{
					OFFSET 0 0 0
					CHANNELS 3 Zrotation Yrotation Xrotation
					JOINT RightArm
					{
						OFFSET -3.41935 1.44327 0.20453
						CHANNELS 3 Zrotation Yrotation Xrotation
						JOINT RightForeArm
						{
							OFFSET -5.23684 -0.00000 0.00000
							CHANNELS 3 Zrotation Yrotation Xrotation
							JOINT RightHand
							{
								OFFSET -3.38251 -0.00000 0.00000
								CHANNELS 3 Zrotation Yrotation Xrotation
								JOINT RightFingerBase
								{
									OFFSET 0 0 0
									CHANNELS 3 Zrotation Yrotation Xrotation
									JOINT RightHandIndex1
									{
										OFFSET -0.69145 -0.00000 0.00000
										CHANNELS 3 Zrotation Yrotation Xrotation
										End Site
										{
											OFFSET -0.55747 -0.00000 0.00000
										}
									}
								}
								JOINT RThumb
								{
									OFFSET 0 0 0
									CHANNELS 3 Zrotation Yrotation Xrotation
									End Site
									{
										OFFSET -0.56598 -0.00000 0.56598
									}
								}
							}
						}
					}
				}
			}
		}
	}
}
MOTION
Frames: 9
Frame Time: .0083333
2.3263 17.6277 -0.9256 510.0830 101.7410 517.8170 0.0000 0.0000 0.0000 -12.5152 -4.9750 -29.1454 4.4352 12.7180 38.3219 1.0458 -3.0461 -18.5491 0.0188 -0.8850 -2.4324 0.0000 0.0000 0.0000 24.2885 4.1592 -9.4722 -8.2596 -16.3069 53.4923 0.1465 7.0695 0.4117 -1.0217 6.4303 -18.0383 -2.1966 2.1669 19.3146 -1.3351 2.6854 6.2024 -0.7842 1.4631 -4.1343 8.1223 2.5131 -3.1017 -3.7500 3.1195 2.4062 -2.5495 1.5757 1.5133 0.0000 0.0000 0.0000 -76.8616 20.1688 19.0514 19.5929 -30.1487 -5.3254 -0.0000 -0.0000 8.9822 -4.8559 7.9191 -0.6706 -7.1250 0.0000 -0.0000 -26.2968 36.6221 5.9352 0.0000 0.0000 0.0000 75.3135 -15.3937 41.7355 -36.2359 45.6747 -15.6910 0.0000 -0.0000 -10.2740 -14.0091 -14.5833 3.5946 7.1250 -0.0000 -0.0000 12.4805 -44.6218 0.1184
2.5262 17.5902 -0.9127 511.6570 101.4520 519.0590 0.0000 0.0000 0.0000 -13.1654 -4.7286 -28.4841 4.5922 12.9093 39.0299 1.1584 -3.4482 -19.4910 0.0173 -0.8487 -2.3326 0.0000 0.0000 0.0000 23.5997 4.1921 -10.6342 -9.0869 -16.8633 56.3900 0.1147 6.4723 -0.2397 -1.0475 6.5084 -18.2668 -2.7827 2.0864 19.3988 -1.5340 2.4698 6.2770 -0.6174 1.3609 -4.1087 8.0301 2.5143 -3.1677 -3.4981 3.1131 2.4819 -2.4472 1.5768 1.5407 0.0000 -0.0000 0.0000 -76.1811 18.8579 19.2997 19.5911 -30.1465 -5.3244 -0.0000 -0.0000 9.6624 -4.2551 7.5476 -0.5599 -7.1250 0.0000 -0.0000 -25.7134 36.3315 5.9808 0.0000 -0.0000 0.0000 75.5257 -15.4215 41.6375 -35.1889 44.9466 -14.9467 0.0000 -0.0000 -9.5907 -14.0564 -15.0563 3.7212 7.1250 -0.0000 -0.0000 12.5712 -45.0997 -0.0314
2.7246 17.5544 -0.8999 512.9330 101.1740 520.0350 0.0000 0.0000 0.0000 -13.7302 -4.4733 -27.8110 4.7338 13.0776 39.6597 1.2774 -3.8040 -20.4492 0.0177 -0.8591 -2.3613 0.0000 0.0000 0.0000 23.0121 4.1925 -11.8252 -9.8715 -17.3369 59.0579 0.0776 5.8429 -1.2003 -1.0510 6.5190 -18.2980 -3.2415 2.0024 19.4874 -1.7180 2.2728 6.3425 -0.5112 1.2678 -4.0887 7.9293 2.4943 -3.2660 -3.2458 3.0762 2.5871 -2.3444 1.5631 1.5813 0.0000 -0.0000 0.0000 -75.4851 17.4750 19.5058 19.6486 -30.2167 -5.3534 -0.0000 -0.0000 10.2953 -3.5290 7.2016 -0.4429 -7.1250 0.0000 -0.0000 -25.0434 36.0699 5.9732 0.0000 -0.0000 0.0000 75.7686 -15.4508 41.4828 -34.1199 44.1733 -14.1965 0.0000 -0.0000 -8.7929 -14.1346 -15.5097 3.8524 7.1250 -0.0000 -0.0000 12.6317 -45.5616 -0.1779
2.9215 17.5210 -0.8883 513.8940 100.9070 520.7300 0.0000 0.0000 0.0000 -14.2098 -4.2147 -27.1281 4.8597 13.2241 40.2131 1.4007 -4.1722 -21.3972 0.0190 -0.8889 -2.4431 0.0000 0.0000 0.0000 22.5235 4.1794 -13.0480 -10.5956 -17.7315 61.4613 0.0350 5.2429 -2.4137 -1.0350 6.4709 -18.1569 -3.5858 1.9112 19.5771 -1.8745 2.0878 6.3976 -0.4431 1.1804 -4.0763 7.8176 2.4638 -3.3866 -3.0099 3.0242 2.7139 -2.2457 1.5419 1.6324 -0.0000 -0.0000 0.0000 -74.8200 16.0366 19.6567 19.7666 -30.3602 -5.4129 -0.0000 -0.0000 10.8134 -2.6083 6.8933 -0.3133 -7.1250 0.0000 -0.0000 -24.2354 35.8529 5.8886 -0.0000 -0.0000 0.0000 76.0075 -15.4831 41.2907 -33.0538 43.3714 -13.4590 0.0000 -0.0000 -7.8794 -14.2119 -15.9322 3.9768 7.1250 -0.0000 -0.0000 12.6868 -45.9926 -0.3159
3.1174 17.4913 -0.8783 514.5730 100.6540 521.1740 0.0000 0.0000 0.0000 -14.6145 -3.9659 -26.4245 4.9684 13.3481 40.6860 1.5226 -4.5131 -22.2989 0.0202 -0.9172 -2.5211 0.0000 0.0000 0.0000 22.1213 4.1806 -14.3067 -11.2473 -18.0540 63.5820 -0.0141 4.7090 -3.7778 -0.9894 6.3310 -17.7479 -3.8298 1.8141 19.6709 -2.0020 1.9131 6.4397 -0.4036 1.0977 -4.0773 7.7044 2.4273 -3.5177 -2.8016 2.9642 2.8531 -2.1566 1.5165 1.6899 -0.0000 0.0000 0.0000 -74.2019 14.5600 19.7653 19.9472 -30.5787 -5.5045 -0.0000 -0.0000 11.1631 -1.4682 6.6227 -0.1694 -7.1250 0.0000 -0.0000 -23.2677 35.6811 5.7231 -0.0000 0.0000 0.0000 76.2271 -15.5314 41.0675 -32.0138 42.5582 -12.7501 0.0000 -0.0000 -6.8668 -14.2555 -16.3052 4.0801 7.1250 -0.0000 -0.0000 12.7603 -46.3701 -0.4385
3.3123 17.4649 -0.8702 515.0270 100.4050 521.4210 0.0000 0.0000 0.0000 -14.9610 -3.7443 -25.6941 5.0588 13.4497 41.0760 1.6424 -4.8290 -23.1534 0.0209 -0.9340 -2.5672 0.0000 0.0000 0.0000 21.7856 4.2069 -15.5979 -11.8164 -18.3120 65.4058 -0.0697 4.2845 -5.1992 -0.9197 6.1102 -17.1044 -3.9977 1.7112 19.7709 -2.0992 1.7440 6.4667 -0.3763 1.0176 -4.0966 7.5931 2.3894 -3.6459 -2.6277 2.9034 2.9954 -2.0797 1.4903 1.7489 0.0000 0.0000 0.0000 -73.6428 13.0679 19.8549 20.2014 -30.8842 -5.6344 -0.0000 -0.0000 11.2995 -0.1219 6.4066 -0.0136 -7.1250 0.0000 -0.0000 -22.1520 35.5681 5.4762 0.0000 0.0000 0.0000 76.4099 -15.6130 40.8222 -31.0239 41.7550 -12.0857 0.0000 -0.0000 -5.7743 -14.2453 -16.6119 4.1513 7.1250 -0.0000 -0.0000 12.8648 -46.6743 -0.5403
3.5062 17.4414 -0.8637 515.3440 100.1440 521.5530 0.0000 0.0000 0.0000 -15.2787 -3.5593 -24.9331 5.1303 13.5290 41.3825 1.7588 -5.1220 -23.9574 0.0214 -0.9439 -2.5944 0.0000 0.0000 0.0000 21.4872 4.2621 -16.9181 -12.2959 -18.5130 66.9238 -0.1310 3.9388 -6.5883 -0.8290 5.8087 -16.2302 -4.1235 1.6016 19.8781 -2.1645 1.5733 6.4807 -0.3387 0.9364 -4.1332 7.4744 2.3551 -3.7689 -2.4863 2.8490 3.1334 -2.0124 1.4665 1.8069 -0.0000 0.0000 0.0000 -73.1577 11.5737 19.9369 20.5361 -31.2828 -5.8071 -0.0000 -0.0000 11.2175 1.3969 6.2674 0.1525 -7.1250 0.0000 -0.0000 -20.9168 35.5326 5.1523 -0.0000 0.0000 0.0000 76.5330 -15.7354 40.5692 -30.1017 40.9804 -11.4763 0.0000 -0.0000 -4.6309 -14.1633 -16.8366 4.1805 7.1250 -0.0000 -0.0000 13.0113 -46.8873 -0.6161
3.6990 17.4202 -0.8582 515.5770 99.8610 521.6170 0.0000 0.0000 0.0000 -15.5842 -3.4159 -24.1408 5.1837 13.5877 41.6104 1.8697 -5.3845 -24.7018 0.0220 -0.9586 -2.6349 0.0000 0.0000 0.0000 21.2104 4.3432 -18.2552 -12.6802 -18.6636 68.1292 -0.1977 3.7042 -7.9369 -0.7411 5.4994 -15.3385 -4.2297 1.4871 19.9964 -2.1989 1.3988 6.4814 -0.2784 0.8531 -4.1899 7.3558 2.3227 -3.8649 -2.3831 2.8007 3.2442 -1.9579 1.4445 1.8525 -0.0000 0.0000 0.0000 -72.7459 10.0980 20.0325 20.9642 -31.7865 -6.0311 -0.0000 -0.0000 10.9134 3.0505 6.1877 0.3291 -7.1250 0.0000 -0.0000 -19.5833 35.5572 4.7760 -0.0000 0.0000 0.0000 76.5868 -15.9106 40.3201 -29.2611 40.2516 -10.9290 0.0000 -0.0000 -3.4848 -14.0024 -16.9730 4.1636 7.1250 -0.0000 -0.0000 13.2032 -47.0015 -0.6633
3.8906 17.4005 -0.8530 515.7440 99.5408 521.6290 0.0000 0.0000 0.0000 -15.8872 -3.3206 -23.3197 5.2202 13.6276 41.7656 1.9745 -5.6195 -25.3879 0.0229 -0.9778 -2.6876 0.0000 0.0000 0.0000 20.9472 4.4348 -19.5928 -12.9643 -18.7692 69.0147 -0.2686 3.5661 -9.2122 -0.6554 5.1781 -14.4174 -4.3290 1.3678 20.1267 -2.2054 1.2185 6.4712 -0.1908 0.7668 -4.2644 7.2330 2.2887 -3.9301 -2.3035 2.7538 3.3206 -1.9106 1.4223 1.8821 -0.0000 0.0000 0.0000 -72.3982 8.6609 20.1619 21.5100 -32.4188 -6.3211 -0.0000 -0.0000 10.4126 4.7468 6.1923 0.5132 -7.1250 0.0000 -0.0000 -18.2273 35.6609 4.3663 -0.0000 0.0000 0.0000 76.5752 -16.1400 40.0755 -28.5054 39.5774 -10.4441 0.0000 -0.0000 -2.3661 -13.7573 -17.0172 4.0984 7.1250 -0.0000 -0.0000 13.4435 -47.0129 -0.6796
